<mxfile host="app.diagrams.net" modified="2021-05-11T12:51:59.509Z" agent="5.0 (Windows)" etag="-0jIKXBuEG3CDr1Iut9H" version="14.6.11" type="github">
  <diagram id="ievMNiwPblhhOYw8T7NC" name="Page-1">
    <mxGraphModel dx="1422" dy="763" grid="1" gridSize="10" guides="1" tooltips="1" connect="1" arrows="1" fold="1" page="1" pageScale="1" pageWidth="827" pageHeight="1169" math="0" shadow="0">
      <root>
        <mxCell id="0" />
        <mxCell id="1" parent="0" />
        <mxCell id="7gqF47OzsvZPm6Jj2vFc-90" value="&lt;font style=&quot;font-size: 14px&quot;&gt;&lt;b&gt;Diagram (2) - Providers Registration&lt;br&gt;&lt;/b&gt;&lt;/font&gt;" style="text;html=1;align=center;verticalAlign=middle;resizable=0;points=[];autosize=1;strokeColor=none;" vertex="1" parent="1">
          <mxGeometry x="275" y="630" width="270" height="20" as="geometry" />
        </mxCell>
        <mxCell id="7gqF47OzsvZPm6Jj2vFc-122" value="" style="rounded=0;whiteSpace=wrap;html=1;strokeWidth=3;" vertex="1" parent="1">
          <mxGeometry x="20" y="660" width="797.5" height="590" as="geometry" />
        </mxCell>
        <mxCell id="7gqF47OzsvZPm6Jj2vFc-51" value="&lt;b&gt;&lt;font color=&quot;#3399FF&quot;&gt;Start&lt;/font&gt;&lt;/b&gt;" style="ellipse;whiteSpace=wrap;html=1;strokeWidth=2;rounded=0;" vertex="1" parent="1">
          <mxGeometry x="35" y="685" width="90" height="50" as="geometry" />
        </mxCell>
        <mxCell id="7gqF47OzsvZPm6Jj2vFc-53" value="&lt;b&gt;&lt;font color=&quot;#3399FF&quot;&gt;Application&lt;/font&gt;&lt;/b&gt;" style="rounded=0;whiteSpace=wrap;html=1;strokeWidth=2;" vertex="1" parent="1">
          <mxGeometry x="185" y="680" width="120" height="60" as="geometry" />
        </mxCell>
        <mxCell id="7gqF47OzsvZPm6Jj2vFc-50" style="edgeStyle=orthogonalEdgeStyle;rounded=0;orthogonalLoop=1;jettySize=auto;html=1;exitX=1;exitY=0.5;exitDx=0;exitDy=0;entryX=0;entryY=0.5;entryDx=0;entryDy=0;strokeWidth=2;endArrow=blockThin;endFill=1;" edge="1" parent="1" source="7gqF47OzsvZPm6Jj2vFc-51" target="7gqF47OzsvZPm6Jj2vFc-53">
          <mxGeometry x="20" y="660" as="geometry" />
        </mxCell>
        <mxCell id="7gqF47OzsvZPm6Jj2vFc-56" value="&lt;b&gt;&lt;font color=&quot;#3399FF&quot;&gt;User exist&lt;/font&gt;&lt;/b&gt;" style="rhombus;whiteSpace=wrap;html=1;strokeWidth=2;rounded=0;" vertex="1" parent="1">
          <mxGeometry x="405" y="670" width="180" height="80" as="geometry" />
        </mxCell>
        <mxCell id="7gqF47OzsvZPm6Jj2vFc-52" style="edgeStyle=orthogonalEdgeStyle;rounded=0;orthogonalLoop=1;jettySize=auto;html=1;exitX=1;exitY=0.5;exitDx=0;exitDy=0;entryX=0;entryY=0.5;entryDx=0;entryDy=0;strokeWidth=2;endArrow=blockThin;endFill=1;" edge="1" parent="1" source="7gqF47OzsvZPm6Jj2vFc-53" target="7gqF47OzsvZPm6Jj2vFc-56">
          <mxGeometry x="20" y="660" as="geometry" />
        </mxCell>
        <mxCell id="7gqF47OzsvZPm6Jj2vFc-58" value="Create account" style="rounded=0;whiteSpace=wrap;html=1;strokeWidth=2;" vertex="1" parent="1">
          <mxGeometry x="665" y="680" width="120" height="60" as="geometry" />
        </mxCell>
        <mxCell id="7gqF47OzsvZPm6Jj2vFc-54" style="edgeStyle=orthogonalEdgeStyle;rounded=0;orthogonalLoop=1;jettySize=auto;html=1;exitX=1;exitY=0.5;exitDx=0;exitDy=0;entryX=0;entryY=0.5;entryDx=0;entryDy=0;strokeWidth=2;endArrow=blockThin;endFill=1;" edge="1" parent="1" source="7gqF47OzsvZPm6Jj2vFc-56" target="7gqF47OzsvZPm6Jj2vFc-58">
          <mxGeometry x="20" y="660" as="geometry" />
        </mxCell>
        <mxCell id="7gqF47OzsvZPm6Jj2vFc-60" value="&lt;font color=&quot;#3399FF&quot;&gt;&lt;b&gt;Uploading Documents&lt;/b&gt;&lt;/font&gt;" style="rounded=0;whiteSpace=wrap;html=1;strokeWidth=2;" vertex="1" parent="1">
          <mxGeometry x="665" y="760" width="120" height="60" as="geometry" />
        </mxCell>
        <mxCell id="7gqF47OzsvZPm6Jj2vFc-57" style="edgeStyle=orthogonalEdgeStyle;rounded=0;orthogonalLoop=1;jettySize=auto;html=1;exitX=0.5;exitY=1;exitDx=0;exitDy=0;entryX=0.5;entryY=0;entryDx=0;entryDy=0;strokeWidth=2;endArrow=blockThin;endFill=1;" edge="1" parent="1" source="7gqF47OzsvZPm6Jj2vFc-58" target="7gqF47OzsvZPm6Jj2vFc-60">
          <mxGeometry x="20" y="660" as="geometry" />
        </mxCell>
        <mxCell id="7gqF47OzsvZPm6Jj2vFc-62" value="&lt;font color=&quot;#3399FF&quot;&gt;&lt;b&gt;Login with Credentials&lt;/b&gt;&lt;/font&gt;" style="rounded=0;whiteSpace=wrap;html=1;strokeWidth=2;" vertex="1" parent="1">
          <mxGeometry x="242.5" y="845" width="120" height="60" as="geometry" />
        </mxCell>
        <mxCell id="7gqF47OzsvZPm6Jj2vFc-55" style="edgeStyle=orthogonalEdgeStyle;rounded=0;orthogonalLoop=1;jettySize=auto;html=1;exitX=0.5;exitY=1;exitDx=0;exitDy=0;entryX=0.5;entryY=0;entryDx=0;entryDy=0;strokeWidth=2;endArrow=blockThin;endFill=1;" edge="1" parent="1" source="7gqF47OzsvZPm6Jj2vFc-56" target="7gqF47OzsvZPm6Jj2vFc-62">
          <mxGeometry x="20" y="660" as="geometry" />
        </mxCell>
        <mxCell id="7gqF47OzsvZPm6Jj2vFc-136" style="edgeStyle=orthogonalEdgeStyle;rounded=0;orthogonalLoop=1;jettySize=auto;html=1;exitX=0.5;exitY=1;exitDx=0;exitDy=0;endArrow=blockThin;endFill=1;strokeWidth=2;entryX=0.5;entryY=0;entryDx=0;entryDy=0;" edge="1" parent="1" source="7gqF47OzsvZPm6Jj2vFc-65" target="7gqF47OzsvZPm6Jj2vFc-135">
          <mxGeometry relative="1" as="geometry">
            <Array as="points">
              <mxPoint x="115" y="940" />
              <mxPoint x="570" y="940" />
            </Array>
          </mxGeometry>
        </mxCell>
        <mxCell id="7gqF47OzsvZPm6Jj2vFc-65" value="&lt;font color=&quot;#3399FF&quot;&gt;&lt;b&gt;Providers Dashboard&lt;br&gt;&lt;/b&gt;&lt;/font&gt;" style="rounded=0;whiteSpace=wrap;html=1;strokeWidth=2;" vertex="1" parent="1">
          <mxGeometry x="55" y="845" width="120" height="60" as="geometry" />
        </mxCell>
        <mxCell id="7gqF47OzsvZPm6Jj2vFc-61" style="edgeStyle=orthogonalEdgeStyle;rounded=0;orthogonalLoop=1;jettySize=auto;html=1;exitX=0;exitY=0.5;exitDx=0;exitDy=0;strokeWidth=2;endArrow=blockThin;endFill=1;" edge="1" parent="1" source="7gqF47OzsvZPm6Jj2vFc-62" target="7gqF47OzsvZPm6Jj2vFc-65">
          <mxGeometry x="20" y="660" as="geometry" />
        </mxCell>
        <mxCell id="7gqF47OzsvZPm6Jj2vFc-140" value="" style="edgeStyle=orthogonalEdgeStyle;rounded=0;orthogonalLoop=1;jettySize=auto;html=1;endArrow=blockThin;endFill=1;strokeWidth=2;" edge="1" parent="1" source="7gqF47OzsvZPm6Jj2vFc-67" target="7gqF47OzsvZPm6Jj2vFc-139">
          <mxGeometry relative="1" as="geometry" />
        </mxCell>
        <mxCell id="7gqF47OzsvZPm6Jj2vFc-67" value="&lt;font color=&quot;#3399FF&quot;&gt;&lt;b&gt;Press Menu Button&lt;/b&gt;&lt;/font&gt;" style="rounded=0;whiteSpace=wrap;html=1;strokeWidth=2;" vertex="1" parent="1">
          <mxGeometry x="55" y="965" width="120" height="60" as="geometry" />
        </mxCell>
        <mxCell id="7gqF47OzsvZPm6Jj2vFc-63" style="edgeStyle=orthogonalEdgeStyle;rounded=0;orthogonalLoop=1;jettySize=auto;html=1;exitX=0.5;exitY=1;exitDx=0;exitDy=0;entryX=0.5;entryY=0;entryDx=0;entryDy=0;strokeWidth=2;endArrow=blockThin;endFill=1;" edge="1" parent="1" source="7gqF47OzsvZPm6Jj2vFc-65" target="7gqF47OzsvZPm6Jj2vFc-67">
          <mxGeometry x="20" y="660" as="geometry" />
        </mxCell>
        <mxCell id="7gqF47OzsvZPm6Jj2vFc-127" style="edgeStyle=orthogonalEdgeStyle;rounded=0;orthogonalLoop=1;jettySize=auto;html=1;exitX=0.5;exitY=1;exitDx=0;exitDy=0;entryX=0.5;entryY=0;entryDx=0;entryDy=0;endArrow=blockThin;endFill=1;strokeWidth=2;" edge="1" parent="1" source="7gqF47OzsvZPm6Jj2vFc-72" target="7gqF47OzsvZPm6Jj2vFc-74">
          <mxGeometry relative="1" as="geometry" />
        </mxCell>
        <mxCell id="7gqF47OzsvZPm6Jj2vFc-128" style="edgeStyle=orthogonalEdgeStyle;rounded=0;orthogonalLoop=1;jettySize=auto;html=1;exitX=0.5;exitY=1;exitDx=0;exitDy=0;entryX=0.5;entryY=0;entryDx=0;entryDy=0;endArrow=blockThin;endFill=1;strokeWidth=2;" edge="1" parent="1" source="7gqF47OzsvZPm6Jj2vFc-72" target="7gqF47OzsvZPm6Jj2vFc-76">
          <mxGeometry relative="1" as="geometry" />
        </mxCell>
        <mxCell id="7gqF47OzsvZPm6Jj2vFc-129" style="edgeStyle=orthogonalEdgeStyle;rounded=0;orthogonalLoop=1;jettySize=auto;html=1;exitX=0.5;exitY=1;exitDx=0;exitDy=0;endArrow=blockThin;endFill=1;strokeWidth=2;" edge="1" parent="1" source="7gqF47OzsvZPm6Jj2vFc-72" target="7gqF47OzsvZPm6Jj2vFc-80">
          <mxGeometry relative="1" as="geometry" />
        </mxCell>
        <mxCell id="7gqF47OzsvZPm6Jj2vFc-152" style="edgeStyle=orthogonalEdgeStyle;rounded=0;orthogonalLoop=1;jettySize=auto;html=1;exitX=0.5;exitY=1;exitDx=0;exitDy=0;entryX=0.5;entryY=0;entryDx=0;entryDy=0;endArrow=blockThin;endFill=1;strokeWidth=2;" edge="1" parent="1" source="7gqF47OzsvZPm6Jj2vFc-72" target="7gqF47OzsvZPm6Jj2vFc-147">
          <mxGeometry relative="1" as="geometry" />
        </mxCell>
        <mxCell id="7gqF47OzsvZPm6Jj2vFc-72" value="&lt;b&gt;&lt;font color=&quot;#3399FF&quot;&gt;Dashboard Options&lt;/font&gt;&lt;/b&gt;" style="rounded=0;whiteSpace=wrap;html=1;strokeWidth=2;" vertex="1" parent="1">
          <mxGeometry x="358.75" y="965" width="120" height="60" as="geometry" />
        </mxCell>
        <mxCell id="7gqF47OzsvZPm6Jj2vFc-64" style="edgeStyle=orthogonalEdgeStyle;rounded=0;orthogonalLoop=1;jettySize=auto;html=1;exitX=0.5;exitY=1;exitDx=0;exitDy=0;strokeWidth=2;endArrow=blockThin;endFill=1;entryX=0.5;entryY=0;entryDx=0;entryDy=0;" edge="1" parent="1" source="7gqF47OzsvZPm6Jj2vFc-65" target="7gqF47OzsvZPm6Jj2vFc-72">
          <mxGeometry x="20" y="660" as="geometry">
            <Array as="points">
              <mxPoint x="115" y="940" />
              <mxPoint x="419" y="940" />
            </Array>
          </mxGeometry>
        </mxCell>
        <mxCell id="7gqF47OzsvZPm6Jj2vFc-130" style="edgeStyle=orthogonalEdgeStyle;rounded=0;orthogonalLoop=1;jettySize=auto;html=1;exitX=0.5;exitY=1;exitDx=0;exitDy=0;entryX=0.5;entryY=0;entryDx=0;entryDy=0;endArrow=blockThin;endFill=1;strokeWidth=2;" edge="1" parent="1" source="7gqF47OzsvZPm6Jj2vFc-74" target="7gqF47OzsvZPm6Jj2vFc-88">
          <mxGeometry relative="1" as="geometry" />
        </mxCell>
        <mxCell id="7gqF47OzsvZPm6Jj2vFc-74" value="&lt;b&gt;&lt;font color=&quot;#3399FF&quot;&gt;Sold/Taken/Booked Products/Services/...&lt;br&gt;&lt;/font&gt;&lt;/b&gt;" style="rounded=0;whiteSpace=wrap;html=1;strokeWidth=2;" vertex="1" parent="1">
          <mxGeometry x="358.75" y="1070" width="120" height="60" as="geometry" />
        </mxCell>
        <mxCell id="7gqF47OzsvZPm6Jj2vFc-132" style="edgeStyle=orthogonalEdgeStyle;rounded=0;orthogonalLoop=1;jettySize=auto;html=1;exitX=0.5;exitY=1;exitDx=0;exitDy=0;entryX=0.5;entryY=0;entryDx=0;entryDy=0;endArrow=blockThin;endFill=1;strokeWidth=2;" edge="1" parent="1" source="7gqF47OzsvZPm6Jj2vFc-76" target="7gqF47OzsvZPm6Jj2vFc-88">
          <mxGeometry relative="1" as="geometry" />
        </mxCell>
        <mxCell id="7gqF47OzsvZPm6Jj2vFc-76" value="&lt;font color=&quot;#3399FF&quot;&gt;&lt;b&gt;Delivery&lt;/b&gt;&lt;/font&gt;" style="rounded=0;whiteSpace=wrap;html=1;strokeWidth=2;" vertex="1" parent="1">
          <mxGeometry x="490" y="1070" width="120" height="60" as="geometry" />
        </mxCell>
        <mxCell id="7gqF47OzsvZPm6Jj2vFc-131" style="edgeStyle=orthogonalEdgeStyle;rounded=0;orthogonalLoop=1;jettySize=auto;html=1;exitX=0.5;exitY=1;exitDx=0;exitDy=0;entryX=0.5;entryY=0;entryDx=0;entryDy=0;endArrow=blockThin;endFill=1;strokeWidth=2;" edge="1" parent="1" source="7gqF47OzsvZPm6Jj2vFc-80" target="7gqF47OzsvZPm6Jj2vFc-88">
          <mxGeometry relative="1" as="geometry" />
        </mxCell>
        <mxCell id="7gqF47OzsvZPm6Jj2vFc-80" value="&lt;font color=&quot;#3399FF&quot;&gt;&lt;b&gt;Owned/Available Products/Services&lt;br&gt;&lt;/b&gt;&lt;/font&gt;" style="rounded=0;whiteSpace=wrap;html=1;strokeWidth=2;" vertex="1" parent="1">
          <mxGeometry x="230" y="1070" width="120" height="60" as="geometry" />
        </mxCell>
        <mxCell id="7gqF47OzsvZPm6Jj2vFc-84" value="&lt;b&gt;&lt;font color=&quot;#3399FF&quot;&gt;Create account&lt;/font&gt;&lt;/b&gt;" style="rounded=0;whiteSpace=wrap;html=1;strokeWidth=2;" vertex="1" parent="1">
          <mxGeometry x="665" y="680" width="120" height="60" as="geometry" />
        </mxCell>
        <mxCell id="7gqF47OzsvZPm6Jj2vFc-85" value="&lt;b&gt;&lt;font color=&quot;#3399FF&quot;&gt;No&lt;/font&gt;&lt;/b&gt;" style="text;html=1;align=center;verticalAlign=middle;resizable=0;points=[];autosize=1;strokeColor=none;" vertex="1" parent="1">
          <mxGeometry x="600" y="685" width="30" height="20" as="geometry" />
        </mxCell>
        <mxCell id="7gqF47OzsvZPm6Jj2vFc-86" value="&lt;font color=&quot;#3399FF&quot;&gt;&lt;b&gt;Yes&lt;/b&gt;&lt;/font&gt;" style="text;html=1;align=center;verticalAlign=middle;resizable=0;points=[];autosize=1;strokeColor=none;rotation=0;" vertex="1" parent="1">
          <mxGeometry x="377.5" y="770" width="40" height="20" as="geometry" />
        </mxCell>
        <mxCell id="7gqF47OzsvZPm6Jj2vFc-87" style="edgeStyle=orthogonalEdgeStyle;rounded=0;orthogonalLoop=1;jettySize=auto;html=1;exitX=1;exitY=0.5;exitDx=0;exitDy=0;entryX=0.75;entryY=1;entryDx=0;entryDy=0;endArrow=blockThin;endFill=1;strokeWidth=2;" edge="1" parent="1" source="7gqF47OzsvZPm6Jj2vFc-88" target="7gqF47OzsvZPm6Jj2vFc-65">
          <mxGeometry x="20" y="660" as="geometry">
            <Array as="points">
              <mxPoint x="800" y="1205" />
              <mxPoint x="800" y="920" />
              <mxPoint x="145" y="920" />
            </Array>
          </mxGeometry>
        </mxCell>
        <mxCell id="7gqF47OzsvZPm6Jj2vFc-88" value="&lt;b&gt;&lt;font color=&quot;#3399FF&quot;&gt;Details of Action in Diagram 5&lt;br&gt;&lt;/font&gt;&lt;/b&gt;" style="rounded=0;whiteSpace=wrap;html=1;strokeWidth=2;dashed=1;dashPattern=1 1;" vertex="1" parent="1">
          <mxGeometry x="230" y="1175" width="380" height="60" as="geometry" />
        </mxCell>
        <mxCell id="7gqF47OzsvZPm6Jj2vFc-95" style="edgeStyle=orthogonalEdgeStyle;rounded=0;orthogonalLoop=1;jettySize=auto;html=1;exitX=1;exitY=0.5;exitDx=0;exitDy=0;entryX=0.5;entryY=1;entryDx=0;entryDy=0;endArrow=blockThin;endFill=1;strokeWidth=2;" edge="1" parent="1" source="7gqF47OzsvZPm6Jj2vFc-92" target="7gqF47OzsvZPm6Jj2vFc-60">
          <mxGeometry x="20" y="660" as="geometry">
            <mxPoint x="710" y="875" as="targetPoint" />
          </mxGeometry>
        </mxCell>
        <mxCell id="7gqF47OzsvZPm6Jj2vFc-96" style="edgeStyle=orthogonalEdgeStyle;rounded=0;orthogonalLoop=1;jettySize=auto;html=1;exitX=0;exitY=0.5;exitDx=0;exitDy=0;entryX=1;entryY=0.5;entryDx=0;entryDy=0;endArrow=blockThin;endFill=1;strokeWidth=2;" edge="1" parent="1" source="7gqF47OzsvZPm6Jj2vFc-92" target="7gqF47OzsvZPm6Jj2vFc-62">
          <mxGeometry x="20" y="660" as="geometry" />
        </mxCell>
        <mxCell id="7gqF47OzsvZPm6Jj2vFc-92" value="&lt;b&gt;&lt;font color=&quot;#3399FF&quot;&gt;Documents Confirmation&lt;br&gt;&lt;/font&gt;&lt;/b&gt;" style="rhombus;whiteSpace=wrap;html=1;strokeWidth=2;rounded=0;" vertex="1" parent="1">
          <mxGeometry x="427.5" y="835" width="180" height="80" as="geometry" />
        </mxCell>
        <mxCell id="7gqF47OzsvZPm6Jj2vFc-94" style="edgeStyle=orthogonalEdgeStyle;rounded=0;orthogonalLoop=1;jettySize=auto;html=1;exitX=0;exitY=0.5;exitDx=0;exitDy=0;entryX=0.5;entryY=0;entryDx=0;entryDy=0;endArrow=blockThin;endFill=1;strokeWidth=2;" edge="1" parent="1" source="7gqF47OzsvZPm6Jj2vFc-60" target="7gqF47OzsvZPm6Jj2vFc-92">
          <mxGeometry x="20" y="660" as="geometry" />
        </mxCell>
        <mxCell id="7gqF47OzsvZPm6Jj2vFc-97" value="&lt;b&gt;&lt;font color=&quot;#3399FF&quot;&gt;No&lt;/font&gt;&lt;/b&gt;" style="text;html=1;align=center;verticalAlign=middle;resizable=0;points=[];autosize=1;strokeColor=none;" vertex="1" parent="1">
          <mxGeometry x="642.5" y="850" width="30" height="20" as="geometry" />
        </mxCell>
        <mxCell id="7gqF47OzsvZPm6Jj2vFc-98" value="&lt;font color=&quot;#3399FF&quot;&gt;&lt;b&gt;Yes&lt;/b&gt;&lt;/font&gt;" style="text;html=1;align=center;verticalAlign=middle;resizable=0;points=[];autosize=1;strokeColor=none;rotation=0;" vertex="1" parent="1">
          <mxGeometry x="377.5" y="850" width="40" height="20" as="geometry" />
        </mxCell>
        <mxCell id="7gqF47OzsvZPm6Jj2vFc-137" style="edgeStyle=orthogonalEdgeStyle;rounded=0;orthogonalLoop=1;jettySize=auto;html=1;exitX=1;exitY=0.5;exitDx=0;exitDy=0;entryX=0.75;entryY=1;entryDx=0;entryDy=0;endArrow=blockThin;endFill=1;strokeWidth=2;" edge="1" parent="1" source="7gqF47OzsvZPm6Jj2vFc-134" target="7gqF47OzsvZPm6Jj2vFc-65">
          <mxGeometry relative="1" as="geometry">
            <Array as="points">
              <mxPoint x="800" y="995" />
              <mxPoint x="800" y="920" />
              <mxPoint x="145" y="920" />
            </Array>
          </mxGeometry>
        </mxCell>
        <mxCell id="7gqF47OzsvZPm6Jj2vFc-134" value="&lt;font color=&quot;#3399FF&quot;&gt;&lt;b&gt;Details of Action in Diagram 4&lt;br&gt;&lt;/b&gt;&lt;/font&gt;" style="rounded=0;whiteSpace=wrap;html=1;strokeWidth=2;dashed=1;dashPattern=1 1;" vertex="1" parent="1">
          <mxGeometry x="655" y="965" width="120" height="60" as="geometry" />
        </mxCell>
        <mxCell id="7gqF47OzsvZPm6Jj2vFc-146" value="" style="edgeStyle=orthogonalEdgeStyle;rounded=0;orthogonalLoop=1;jettySize=auto;html=1;endArrow=blockThin;endFill=1;strokeWidth=2;" edge="1" parent="1" source="7gqF47OzsvZPm6Jj2vFc-135" target="7gqF47OzsvZPm6Jj2vFc-134">
          <mxGeometry relative="1" as="geometry" />
        </mxCell>
        <mxCell id="7gqF47OzsvZPm6Jj2vFc-135" value="&lt;b&gt;&lt;font color=&quot;#3399FF&quot;&gt;Normal User Home&lt;br&gt;&lt;/font&gt;&lt;/b&gt;" style="rounded=0;whiteSpace=wrap;html=1;strokeWidth=2;" vertex="1" parent="1">
          <mxGeometry x="510" y="965" width="120" height="60" as="geometry" />
        </mxCell>
        <mxCell id="7gqF47OzsvZPm6Jj2vFc-141" style="edgeStyle=orthogonalEdgeStyle;rounded=0;orthogonalLoop=1;jettySize=auto;html=1;exitX=0.5;exitY=1;exitDx=0;exitDy=0;entryX=0;entryY=0.5;entryDx=0;entryDy=0;endArrow=blockThin;endFill=1;strokeWidth=2;" edge="1" parent="1" source="7gqF47OzsvZPm6Jj2vFc-139" target="7gqF47OzsvZPm6Jj2vFc-65">
          <mxGeometry relative="1" as="geometry" />
        </mxCell>
        <mxCell id="7gqF47OzsvZPm6Jj2vFc-139" value="&lt;font color=&quot;#3399FF&quot;&gt;&lt;b&gt;Details of Actions in Diagram 3&lt;br&gt;&lt;/b&gt;&lt;/font&gt;" style="rounded=0;whiteSpace=wrap;html=1;strokeWidth=2;dashed=1;dashPattern=1 1;" vertex="1" parent="1">
          <mxGeometry x="55" y="1105" width="120" height="60" as="geometry" />
        </mxCell>
        <mxCell id="7gqF47OzsvZPm6Jj2vFc-120" value="" style="rounded=0;whiteSpace=wrap;html=1;strokeWidth=3;" vertex="1" parent="1">
          <mxGeometry x="20" y="50" width="800" height="550" as="geometry" />
        </mxCell>
        <mxCell id="7gqF47OzsvZPm6Jj2vFc-1" value="&lt;b&gt;&lt;font color=&quot;#3399FF&quot;&gt;Start&lt;/font&gt;&lt;/b&gt;" style="ellipse;whiteSpace=wrap;html=1;strokeWidth=2;rounded=0;" vertex="1" parent="1">
          <mxGeometry x="37.5" y="75" width="90" height="50" as="geometry" />
        </mxCell>
        <mxCell id="7gqF47OzsvZPm6Jj2vFc-2" value="&lt;b&gt;&lt;font color=&quot;#3399FF&quot;&gt;Application&lt;/font&gt;&lt;/b&gt;" style="rounded=0;whiteSpace=wrap;html=1;strokeWidth=2;" vertex="1" parent="1">
          <mxGeometry x="187.5" y="70" width="120" height="60" as="geometry" />
        </mxCell>
        <mxCell id="7gqF47OzsvZPm6Jj2vFc-18" style="edgeStyle=orthogonalEdgeStyle;rounded=0;orthogonalLoop=1;jettySize=auto;html=1;exitX=1;exitY=0.5;exitDx=0;exitDy=0;entryX=0;entryY=0.5;entryDx=0;entryDy=0;strokeWidth=2;endArrow=blockThin;endFill=1;" edge="1" parent="1" source="7gqF47OzsvZPm6Jj2vFc-1" target="7gqF47OzsvZPm6Jj2vFc-2">
          <mxGeometry x="20" y="30" as="geometry" />
        </mxCell>
        <mxCell id="7gqF47OzsvZPm6Jj2vFc-3" value="&lt;b&gt;&lt;font color=&quot;#3399FF&quot;&gt;User exist&lt;/font&gt;&lt;/b&gt;" style="rhombus;whiteSpace=wrap;html=1;strokeWidth=2;rounded=0;" vertex="1" parent="1">
          <mxGeometry x="407.5" y="60" width="180" height="80" as="geometry" />
        </mxCell>
        <mxCell id="7gqF47OzsvZPm6Jj2vFc-19" style="edgeStyle=orthogonalEdgeStyle;rounded=0;orthogonalLoop=1;jettySize=auto;html=1;exitX=1;exitY=0.5;exitDx=0;exitDy=0;entryX=0;entryY=0.5;entryDx=0;entryDy=0;strokeWidth=2;endArrow=blockThin;endFill=1;" edge="1" parent="1" source="7gqF47OzsvZPm6Jj2vFc-2" target="7gqF47OzsvZPm6Jj2vFc-3">
          <mxGeometry x="20" y="30" as="geometry" />
        </mxCell>
        <mxCell id="7gqF47OzsvZPm6Jj2vFc-4" value="&lt;b&gt;&lt;font color=&quot;#3399FF&quot;&gt;Create account&lt;/font&gt;&lt;/b&gt;" style="rounded=0;whiteSpace=wrap;html=1;strokeWidth=2;" vertex="1" parent="1">
          <mxGeometry x="667.5" y="70" width="120" height="60" as="geometry" />
        </mxCell>
        <mxCell id="7gqF47OzsvZPm6Jj2vFc-20" style="edgeStyle=orthogonalEdgeStyle;rounded=0;orthogonalLoop=1;jettySize=auto;html=1;exitX=1;exitY=0.5;exitDx=0;exitDy=0;entryX=0;entryY=0.5;entryDx=0;entryDy=0;strokeWidth=2;endArrow=blockThin;endFill=1;" edge="1" parent="1" source="7gqF47OzsvZPm6Jj2vFc-3" target="7gqF47OzsvZPm6Jj2vFc-4">
          <mxGeometry x="20" y="30" as="geometry" />
        </mxCell>
        <mxCell id="7gqF47OzsvZPm6Jj2vFc-5" value="&lt;font color=&quot;#3399FF&quot;&gt;&lt;b&gt;Redirect to registration&lt;/b&gt;&lt;/font&gt;" style="rounded=0;whiteSpace=wrap;html=1;strokeWidth=2;" vertex="1" parent="1">
          <mxGeometry x="667.5" y="190" width="120" height="60" as="geometry" />
        </mxCell>
        <mxCell id="7gqF47OzsvZPm6Jj2vFc-21" style="edgeStyle=orthogonalEdgeStyle;rounded=0;orthogonalLoop=1;jettySize=auto;html=1;exitX=0.5;exitY=1;exitDx=0;exitDy=0;entryX=0.5;entryY=0;entryDx=0;entryDy=0;strokeWidth=2;endArrow=blockThin;endFill=1;" edge="1" parent="1" source="7gqF47OzsvZPm6Jj2vFc-4" target="7gqF47OzsvZPm6Jj2vFc-5">
          <mxGeometry x="20" y="30" as="geometry" />
        </mxCell>
        <mxCell id="7gqF47OzsvZPm6Jj2vFc-6" value="&lt;font color=&quot;#3399FF&quot;&gt;&lt;b&gt;Login with Credentials&lt;/b&gt;&lt;/font&gt;" style="rounded=0;whiteSpace=wrap;html=1;strokeWidth=2;" vertex="1" parent="1">
          <mxGeometry x="437.5" y="190" width="120" height="60" as="geometry" />
        </mxCell>
        <mxCell id="7gqF47OzsvZPm6Jj2vFc-23" style="edgeStyle=orthogonalEdgeStyle;rounded=0;orthogonalLoop=1;jettySize=auto;html=1;exitX=0.5;exitY=1;exitDx=0;exitDy=0;entryX=0.5;entryY=0;entryDx=0;entryDy=0;strokeWidth=2;endArrow=blockThin;endFill=1;" edge="1" parent="1" source="7gqF47OzsvZPm6Jj2vFc-3" target="7gqF47OzsvZPm6Jj2vFc-6">
          <mxGeometry x="20" y="30" as="geometry" />
        </mxCell>
        <mxCell id="7gqF47OzsvZPm6Jj2vFc-22" style="edgeStyle=orthogonalEdgeStyle;rounded=0;orthogonalLoop=1;jettySize=auto;html=1;exitX=0;exitY=0.5;exitDx=0;exitDy=0;entryX=1;entryY=0.5;entryDx=0;entryDy=0;strokeWidth=2;endArrow=blockThin;endFill=1;" edge="1" parent="1" source="7gqF47OzsvZPm6Jj2vFc-5" target="7gqF47OzsvZPm6Jj2vFc-6">
          <mxGeometry x="20" y="30" as="geometry" />
        </mxCell>
        <mxCell id="7gqF47OzsvZPm6Jj2vFc-7" value="&lt;font color=&quot;#3399FF&quot;&gt;&lt;b&gt;Home&lt;/b&gt;&lt;/font&gt;" style="rounded=0;whiteSpace=wrap;html=1;strokeWidth=2;" vertex="1" parent="1">
          <mxGeometry x="50" y="190" width="120" height="60" as="geometry" />
        </mxCell>
        <mxCell id="7gqF47OzsvZPm6Jj2vFc-24" style="edgeStyle=orthogonalEdgeStyle;rounded=0;orthogonalLoop=1;jettySize=auto;html=1;exitX=0;exitY=0.5;exitDx=0;exitDy=0;strokeWidth=2;endArrow=blockThin;endFill=1;" edge="1" parent="1" source="7gqF47OzsvZPm6Jj2vFc-6" target="7gqF47OzsvZPm6Jj2vFc-7">
          <mxGeometry x="20" y="30" as="geometry" />
        </mxCell>
        <mxCell id="7gqF47OzsvZPm6Jj2vFc-143" value="" style="edgeStyle=orthogonalEdgeStyle;rounded=0;orthogonalLoop=1;jettySize=auto;html=1;endArrow=blockThin;endFill=1;strokeWidth=2;" edge="1" parent="1" source="7gqF47OzsvZPm6Jj2vFc-8" target="7gqF47OzsvZPm6Jj2vFc-142">
          <mxGeometry relative="1" as="geometry" />
        </mxCell>
        <mxCell id="7gqF47OzsvZPm6Jj2vFc-8" value="&lt;font color=&quot;#3399FF&quot;&gt;&lt;b&gt;Press Menu Button&lt;/b&gt;&lt;/font&gt;" style="rounded=0;whiteSpace=wrap;html=1;strokeWidth=2;" vertex="1" parent="1">
          <mxGeometry x="50" y="330" width="120" height="60" as="geometry" />
        </mxCell>
        <mxCell id="7gqF47OzsvZPm6Jj2vFc-25" style="edgeStyle=orthogonalEdgeStyle;rounded=0;orthogonalLoop=1;jettySize=auto;html=1;exitX=0.5;exitY=1;exitDx=0;exitDy=0;entryX=0.5;entryY=0;entryDx=0;entryDy=0;strokeWidth=2;endArrow=blockThin;endFill=1;" edge="1" parent="1" source="7gqF47OzsvZPm6Jj2vFc-7" target="7gqF47OzsvZPm6Jj2vFc-8">
          <mxGeometry x="20" y="30" as="geometry" />
        </mxCell>
        <mxCell id="7gqF47OzsvZPm6Jj2vFc-10" value="&lt;b&gt;&lt;font color=&quot;#3399FF&quot;&gt;Home page Options&lt;/font&gt;&lt;/b&gt;" style="rounded=0;whiteSpace=wrap;html=1;strokeWidth=2;" vertex="1" parent="1">
          <mxGeometry x="435" y="310" width="120" height="60" as="geometry" />
        </mxCell>
        <mxCell id="7gqF47OzsvZPm6Jj2vFc-26" style="edgeStyle=orthogonalEdgeStyle;rounded=0;orthogonalLoop=1;jettySize=auto;html=1;exitX=0.5;exitY=1;exitDx=0;exitDy=0;strokeWidth=2;endArrow=blockThin;endFill=1;" edge="1" parent="1" source="7gqF47OzsvZPm6Jj2vFc-7" target="7gqF47OzsvZPm6Jj2vFc-10">
          <mxGeometry x="20" y="30" as="geometry">
            <Array as="points">
              <mxPoint x="110" y="290" />
              <mxPoint x="495" y="290" />
            </Array>
          </mxGeometry>
        </mxCell>
        <mxCell id="7gqF47OzsvZPm6Jj2vFc-11" value="&lt;b&gt;&lt;font color=&quot;#3399FF&quot;&gt;Services&lt;/font&gt;&lt;/b&gt;" style="rounded=0;whiteSpace=wrap;html=1;strokeWidth=2;" vertex="1" parent="1">
          <mxGeometry x="365" y="420" width="120" height="60" as="geometry" />
        </mxCell>
        <mxCell id="7gqF47OzsvZPm6Jj2vFc-27" style="edgeStyle=orthogonalEdgeStyle;rounded=0;orthogonalLoop=1;jettySize=auto;html=1;exitX=0.5;exitY=1;exitDx=0;exitDy=0;entryX=0.5;entryY=0;entryDx=0;entryDy=0;strokeWidth=2;endArrow=blockThin;endFill=1;" edge="1" parent="1" source="7gqF47OzsvZPm6Jj2vFc-10" target="7gqF47OzsvZPm6Jj2vFc-11">
          <mxGeometry x="20" y="30" as="geometry" />
        </mxCell>
        <mxCell id="7gqF47OzsvZPm6Jj2vFc-12" value="&lt;font color=&quot;#3399FF&quot;&gt;&lt;b&gt;News&lt;/b&gt;&lt;/font&gt;" style="rounded=0;whiteSpace=wrap;html=1;strokeWidth=2;" vertex="1" parent="1">
          <mxGeometry x="510" y="420" width="120" height="60" as="geometry" />
        </mxCell>
        <mxCell id="7gqF47OzsvZPm6Jj2vFc-30" style="edgeStyle=orthogonalEdgeStyle;rounded=0;orthogonalLoop=1;jettySize=auto;html=1;exitX=0.5;exitY=1;exitDx=0;exitDy=0;entryX=0.5;entryY=0;entryDx=0;entryDy=0;strokeWidth=2;endArrow=blockThin;endFill=1;" edge="1" parent="1" source="7gqF47OzsvZPm6Jj2vFc-10" target="7gqF47OzsvZPm6Jj2vFc-12">
          <mxGeometry x="20" y="30" as="geometry" />
        </mxCell>
        <mxCell id="7gqF47OzsvZPm6Jj2vFc-13" value="&lt;b&gt;&lt;font color=&quot;#3399FF&quot;&gt;Map&lt;/font&gt;&lt;/b&gt;" style="rounded=0;whiteSpace=wrap;html=1;strokeWidth=2;" vertex="1" parent="1">
          <mxGeometry x="655" y="420" width="120" height="60" as="geometry" />
        </mxCell>
        <mxCell id="7gqF47OzsvZPm6Jj2vFc-31" style="edgeStyle=orthogonalEdgeStyle;rounded=0;orthogonalLoop=1;jettySize=auto;html=1;exitX=0.5;exitY=1;exitDx=0;exitDy=0;entryX=0.5;entryY=0;entryDx=0;entryDy=0;strokeWidth=2;endArrow=blockThin;endFill=1;" edge="1" parent="1" source="7gqF47OzsvZPm6Jj2vFc-10" target="7gqF47OzsvZPm6Jj2vFc-13">
          <mxGeometry x="20" y="30" as="geometry" />
        </mxCell>
        <mxCell id="7gqF47OzsvZPm6Jj2vFc-14" value="&lt;font color=&quot;#3399FF&quot;&gt;&lt;b&gt;Shopping&lt;/b&gt;&lt;/font&gt;" style="rounded=0;whiteSpace=wrap;html=1;strokeWidth=2;" vertex="1" parent="1">
          <mxGeometry x="225" y="420" width="120" height="60" as="geometry" />
        </mxCell>
        <mxCell id="7gqF47OzsvZPm6Jj2vFc-28" style="edgeStyle=orthogonalEdgeStyle;rounded=0;orthogonalLoop=1;jettySize=auto;html=1;exitX=0.5;exitY=1;exitDx=0;exitDy=0;entryX=0.5;entryY=0;entryDx=0;entryDy=0;strokeWidth=2;endArrow=blockThin;endFill=1;" edge="1" parent="1" source="7gqF47OzsvZPm6Jj2vFc-10" target="7gqF47OzsvZPm6Jj2vFc-14">
          <mxGeometry x="20" y="30" as="geometry" />
        </mxCell>
        <mxCell id="7gqF47OzsvZPm6Jj2vFc-41" value="&lt;b&gt;&lt;font color=&quot;#3399FF&quot;&gt;No&lt;/font&gt;&lt;/b&gt;" style="text;html=1;align=center;verticalAlign=middle;resizable=0;points=[];autosize=1;strokeColor=none;" vertex="1" parent="1">
          <mxGeometry x="602.5" y="75" width="30" height="20" as="geometry" />
        </mxCell>
        <mxCell id="7gqF47OzsvZPm6Jj2vFc-42" value="&lt;font color=&quot;#3399FF&quot;&gt;&lt;b&gt;Yes&lt;/b&gt;&lt;/font&gt;" style="text;html=1;align=center;verticalAlign=middle;resizable=0;points=[];autosize=1;strokeColor=none;rotation=90;" vertex="1" parent="1">
          <mxGeometry x="490" y="150" width="40" height="20" as="geometry" />
        </mxCell>
        <mxCell id="7gqF47OzsvZPm6Jj2vFc-48" style="edgeStyle=orthogonalEdgeStyle;rounded=0;orthogonalLoop=1;jettySize=auto;html=1;exitX=1;exitY=0.5;exitDx=0;exitDy=0;entryX=0.75;entryY=1;entryDx=0;entryDy=0;endArrow=blockThin;endFill=1;strokeWidth=2;" edge="1" parent="1" source="7gqF47OzsvZPm6Jj2vFc-43" target="7gqF47OzsvZPm6Jj2vFc-7">
          <mxGeometry x="20" y="30" as="geometry">
            <Array as="points">
              <mxPoint x="800" y="550" />
              <mxPoint x="800" y="270" />
              <mxPoint x="140" y="270" />
            </Array>
          </mxGeometry>
        </mxCell>
        <mxCell id="7gqF47OzsvZPm6Jj2vFc-43" value="&lt;b&gt;&lt;font color=&quot;#3399FF&quot;&gt;Details of Action in Diagram 3&lt;br&gt;&lt;/font&gt;&lt;/b&gt;" style="rounded=0;whiteSpace=wrap;html=1;strokeWidth=2;dashed=1;dashPattern=1 1;" vertex="1" parent="1">
          <mxGeometry x="225" y="520" width="505" height="60" as="geometry" />
        </mxCell>
        <mxCell id="7gqF47OzsvZPm6Jj2vFc-45" style="edgeStyle=orthogonalEdgeStyle;rounded=0;orthogonalLoop=1;jettySize=auto;html=1;exitX=0.5;exitY=1;exitDx=0;exitDy=0;entryX=0.5;entryY=0;entryDx=0;entryDy=0;endArrow=blockThin;endFill=1;strokeWidth=2;" edge="1" parent="1" source="7gqF47OzsvZPm6Jj2vFc-11" target="7gqF47OzsvZPm6Jj2vFc-43">
          <mxGeometry x="20" y="30" as="geometry" />
        </mxCell>
        <mxCell id="7gqF47OzsvZPm6Jj2vFc-46" style="edgeStyle=orthogonalEdgeStyle;rounded=0;orthogonalLoop=1;jettySize=auto;html=1;exitX=0.5;exitY=1;exitDx=0;exitDy=0;endArrow=blockThin;endFill=1;strokeWidth=2;entryX=0.5;entryY=0;entryDx=0;entryDy=0;" edge="1" parent="1" source="7gqF47OzsvZPm6Jj2vFc-12" target="7gqF47OzsvZPm6Jj2vFc-43">
          <mxGeometry x="20" y="30" as="geometry">
            <mxPoint x="515" y="520" as="targetPoint" />
          </mxGeometry>
        </mxCell>
        <mxCell id="7gqF47OzsvZPm6Jj2vFc-47" style="edgeStyle=orthogonalEdgeStyle;rounded=0;orthogonalLoop=1;jettySize=auto;html=1;exitX=0.5;exitY=1;exitDx=0;exitDy=0;entryX=0.5;entryY=0;entryDx=0;entryDy=0;endArrow=blockThin;endFill=1;strokeWidth=2;" edge="1" parent="1" source="7gqF47OzsvZPm6Jj2vFc-13" target="7gqF47OzsvZPm6Jj2vFc-43">
          <mxGeometry x="20" y="30" as="geometry" />
        </mxCell>
        <mxCell id="7gqF47OzsvZPm6Jj2vFc-44" style="edgeStyle=orthogonalEdgeStyle;rounded=0;orthogonalLoop=1;jettySize=auto;html=1;exitX=0.5;exitY=1;exitDx=0;exitDy=0;entryX=0.5;entryY=0;entryDx=0;entryDy=0;endArrow=blockThin;endFill=1;strokeWidth=2;" edge="1" parent="1" source="7gqF47OzsvZPm6Jj2vFc-14" target="7gqF47OzsvZPm6Jj2vFc-43">
          <mxGeometry x="20" y="30" as="geometry" />
        </mxCell>
        <mxCell id="7gqF47OzsvZPm6Jj2vFc-89" value="&lt;b&gt;&lt;font style=&quot;font-size: 14px&quot;&gt;Diagram (1) - Normal Users Registration&lt;/font&gt;&lt;br&gt;&lt;/b&gt;" style="text;html=1;align=center;verticalAlign=middle;resizable=0;points=[];autosize=1;strokeColor=none;" vertex="1" parent="1">
          <mxGeometry x="273.75" y="20" width="290" height="20" as="geometry" />
        </mxCell>
        <mxCell id="7gqF47OzsvZPm6Jj2vFc-144" style="edgeStyle=orthogonalEdgeStyle;rounded=0;orthogonalLoop=1;jettySize=auto;html=1;exitX=0.5;exitY=1;exitDx=0;exitDy=0;entryX=0;entryY=0.5;entryDx=0;entryDy=0;endArrow=blockThin;endFill=1;strokeWidth=2;" edge="1" parent="1" source="7gqF47OzsvZPm6Jj2vFc-142" target="7gqF47OzsvZPm6Jj2vFc-7">
          <mxGeometry relative="1" as="geometry" />
        </mxCell>
        <mxCell id="7gqF47OzsvZPm6Jj2vFc-142" value="&lt;font color=&quot;#3399FF&quot;&gt;&lt;b&gt;Details of Actions in Diagram 3&lt;br&gt;&lt;/b&gt;&lt;/font&gt;" style="rounded=0;whiteSpace=wrap;html=1;strokeWidth=2;dashed=1;dashPattern=1 1;" vertex="1" parent="1">
          <mxGeometry x="50" y="470" width="120" height="60" as="geometry" />
        </mxCell>
        <mxCell id="7gqF47OzsvZPm6Jj2vFc-153" style="edgeStyle=orthogonalEdgeStyle;rounded=0;orthogonalLoop=1;jettySize=auto;html=1;exitX=0.5;exitY=1;exitDx=0;exitDy=0;entryX=0.5;entryY=0;entryDx=0;entryDy=0;endArrow=blockThin;endFill=1;strokeWidth=2;" edge="1" parent="1" source="7gqF47OzsvZPm6Jj2vFc-147" target="7gqF47OzsvZPm6Jj2vFc-88">
          <mxGeometry relative="1" as="geometry" />
        </mxCell>
        <mxCell id="7gqF47OzsvZPm6Jj2vFc-147" value="&lt;font color=&quot;#3399FF&quot;&gt;&lt;b&gt;Providers Payment Information&lt;br&gt;&lt;/b&gt;&lt;/font&gt;" style="rounded=0;whiteSpace=wrap;html=1;strokeWidth=2;" vertex="1" parent="1">
          <mxGeometry x="620" y="1070" width="120" height="60" as="geometry" />
        </mxCell>
      </root>
    </mxGraphModel>
  </diagram>
</mxfile>
